<svg xmlns="http://www.w3.org/2000/svg" width="24" height="24" viewBox="0 0 24 24" fill="none" stroke="currentColor" stroke-width="2" stroke-linecap="round" stroke-linejoin="round">
  <path d="M9.67 2.8a2.1 2.1 0 0 1 4.66 0l.2 1.12a2.1 2.1 0 0 0 2.85 1.64l1.05-.42a2.1 2.1 0 0 1 2.33 4.04l-.85.72a2.1 2.1 0 0 0 0 3.28l.85.72a2.1 2.1 0 0 1-2.33 4.04l-1.05-.42a2.1 2.1 0 0 0-2.85 1.64l-.2 1.12a2.1 2.1 0 0 1-4.66 0l-.2-1.12a2.1 2.1 0 0 0-2.85-1.64l-1.05.42a2.1 2.1 0 0 1-2.33-4.04l.85-.72a2.1 2.1 0 0 0 0-3.28l-.85-.72A2.1 2.1 0 0 1 5.57 5.14l1.05.42a2.1 2.1 0 0 0 2.85-1.64z"/>
  <circle cx="12" cy="12" r="3"/>
</svg>
